<svg xmlns="http://www.w3.org/2000/svg" width="160" height="160"><path fill="#FD0234" d="M80 0c44.11 0 80 35.886 80 80s-35.89 80-80 80S0 124.114 0 80 35.89 0 80 0zM50.928 110.07c.618.62 1.417.93 2.242.93.824 0 1.623-.31 2.242-.93L80.5 84.966l25.088 25.106c.619.62 1.418.929 2.242.929.825 0 1.624-.31 2.242-.93a3.15 3.15 0 0 0 0-4.464L84.932 80.5l25.089-25.106a3.15 3.15 0 0 0 0-4.465 3.139 3.139 0 0 0-4.459 0L80.474 76.035 55.386 50.93a3.139 3.139 0 0 0-4.458 0 3.15 3.15 0 0 0 0 4.465L76.016 80.5l-25.088 25.106a3.15 3.15 0 0 0 0 4.465z"/></svg>